<svg xmlns="http://www.w3.org/2000/svg" version="1.1" xmlns:xlink="http://www.w3.org/1999/xlink" xmlns:svgjs="http://svgjs.dev/svgjs" width="2000" height="1999" viewBox="0 0 2000 1999"><g transform="matrix(1,0,0,1,-0.431486880466764,-0.4312711370263287)"><svg viewBox="0 0 343 343" data-background-color="#ffffff" preserveAspectRatio="xMidYMid meet" height="1999" width="2000" xmlns="http://www.w3.org/2000/svg" xmlns:xlink="http://www.w3.org/1999/xlink"><g id="tight-bounds" transform="matrix(1,0,0,1,0.0740000000000407,0.07400000000001228)"><svg viewBox="0 0 342.85155851775386 342.85155851775386" height="342.85155851775386" width="342.85155851775386"><g><svg></svg></g><g><svg viewBox="0 0 342.85155851775386 342.85155851775386" height="342.85155851775386" width="342.85155851775386"><g><path d="M0 171.426c0-94.676 76.75-171.426 171.426-171.426 94.676 0 171.426 76.75 171.426 171.426 0 94.676-76.75 171.426-171.426 171.426-94.676 0-171.426-76.75-171.426-171.426zM171.426 331.951c88.656 0 160.525-71.87 160.525-160.525 0-88.656-71.87-160.525-160.525-160.526-88.656 0-160.525 71.87-160.526 160.526 0 88.656 71.87 160.525 160.526 160.525z" data-fill-palette-color="tertiary" fill="#08194e" stroke="transparent"></path><ellipse rx="164.56874808852186" ry="164.56874808852186" cx="171.42577925887693" cy="171.42577925887693" fill="#08194e" stroke="transparent" stroke-width="0" fill-opacity="1" data-fill-palette-color="tertiary"></ellipse></g><g transform="matrix(1,0,0,1,64.84655864529837,110.99005262742244)"><svg viewBox="0 0 213.1584412271571 120.87145326290899" height="120.87145326290899" width="213.1584412271571"><g><svg viewBox="0 0 213.1584412271571 120.87145326290899" height="120.87145326290899" width="213.1584412271571"><g><svg viewBox="0 0 213.1584412271571 120.87145326290899" height="120.87145326290899" width="213.1584412271571"><g><svg viewBox="0 0 213.1584412271571 120.87145326290899" height="120.87145326290899" width="213.1584412271571"><g id="textblocktransform"><svg viewBox="0 0 213.1584412271571 120.87145326290899" height="120.87145326290899" width="213.1584412271571" id="textblock"><g><svg viewBox="0 0 213.1584412271571 120.87145326290899" height="120.87145326290899" width="213.1584412271571"><g transform="matrix(1,0,0,1,0,0)"><svg width="213.1584412271571" viewBox="1 -36.65 65.25 37" height="120.87145326290899" data-palette-color="url(#17dfa635-45e7-4b56-80ec-86539b672a92)"></svg></g></svg></g></svg></g></svg></g><g></g></svg></g></svg></g></svg></g></svg></g><defs></defs><mask id="b9ced3a2-8e7a-4afe-9655-8a43a6e485e0"><g id="SvgjsG1240"><svg viewBox="0 0 342.85155851775386 342.85155851775386" height="342.85155851775386" width="342.85155851775386"><g><svg></svg></g><g><svg viewBox="0 0 342.85155851775386 342.85155851775386" height="342.85155851775386" width="342.85155851775386"><g><path d="M0 171.426c0-94.676 76.75-171.426 171.426-171.426 94.676 0 171.426 76.75 171.426 171.426 0 94.676-76.75 171.426-171.426 171.426-94.676 0-171.426-76.75-171.426-171.426zM171.426 331.951c88.656 0 160.525-71.87 160.525-160.525 0-88.656-71.87-160.525-160.525-160.526-88.656 0-160.525 71.87-160.526 160.526 0 88.656 71.87 160.525 160.526 160.525z" fill="black" stroke="transparent"></path><ellipse rx="164.56874808852186" ry="164.56874808852186" cx="171.42577925887693" cy="171.42577925887693" fill="black" stroke="transparent" stroke-width="0" fill-opacity="1"></ellipse></g><g transform="matrix(1,0,0,1,64.84655864529837,110.99005262742244)"><svg viewBox="0 0 213.1584412271571 120.87145326290899" height="120.87145326290899" width="213.1584412271571"><g><svg viewBox="0 0 213.1584412271571 120.87145326290899" height="120.87145326290899" width="213.1584412271571"><g><svg viewBox="0 0 213.1584412271571 120.87145326290899" height="120.87145326290899" width="213.1584412271571"><g><svg viewBox="0 0 213.1584412271571 120.87145326290899" height="120.87145326290899" width="213.1584412271571"><g id="SvgjsG1239"><svg viewBox="0 0 213.1584412271571 120.87145326290899" height="120.87145326290899" width="213.1584412271571" id="SvgjsSvg1238"><g><svg viewBox="0 0 213.1584412271571 120.87145326290899" height="120.87145326290899" width="213.1584412271571"><g transform="matrix(1,0,0,1,0,0)"><svg width="213.1584412271571" viewBox="1 -36.65 65.25 37" height="120.87145326290899" data-palette-color="url(#17dfa635-45e7-4b56-80ec-86539b672a92)"><path d="M5.85 0.2L5.85 0.2Q4.05 0.2 2.65-1.38 1.25-2.95 1.25-6.3L1.25-6.3Q1.25-8.65 1.88-11 2.5-13.35 3.15-15.3L3.15-15.3Q4.15-18.5 4.9-21.2 5.65-23.9 5.65-26.35L5.65-26.35Q5.65-28.05 5.28-28.7 4.9-29.35 4.3-29.35L4.3-29.35Q3.65-29.35 2.88-28.65 2.1-27.95 1.35-26.5L1.35-26.5 1-26.6Q1.1-29.5 2.25-31.6 3.4-33.7 5.15-34.85 6.9-36 8.75-36L8.75-36Q10.85-36 12.35-34.33 13.85-32.65 13.85-28.55L13.85-28.55Q13.85-26.4 13.43-24.05 13-21.7 12.45-19.35L12.45-19.35Q14.15-20.05 16.05-20.35 17.95-20.65 20.1-20.65L20.1-20.65 21.4-20.65Q22.05-23.15 22.53-25.58 23-28 23-30.1L23-30.1Q23-30.85 22.93-31.5 22.85-32.15 22.75-32.75L22.75-32.75 22.75-33.15Q23.5-34.5 24.93-35.3 26.35-36.1 27.8-36.1L27.8-36.1Q29.45-36.1 30.7-35.02 31.95-33.95 31.95-31.6L31.95-31.6Q31.95-29.85 31.28-27.1 30.6-24.35 29.75-21.45L29.75-21.45Q28.75-17.9 27.93-14.58 27.1-11.25 27.1-8.95L27.1-8.95Q27.1-7.4 27.6-6.5 28.1-5.6 29.2-5.6L29.2-5.6Q30.7-5.6 31.45-7.05L31.45-7.05 31.75-6.9Q31.7-4.8 30.6-3.2 29.5-1.6 27.88-0.7 26.25 0.2 24.55 0.2L24.55 0.2Q23.05 0.2 21.73-0.58 20.4-1.35 19.58-3 18.75-4.65 18.75-7.3L18.75-7.3Q18.75-9.05 19.13-11.13 19.5-13.2 20-15.35L20-15.35Q17.7-15.5 15.5-15.5L15.5-15.5Q14.4-15.5 13.4-15.45 12.4-15.4 11.5-15.3L11.5-15.3Q11.05-13.3 10.73-11.38 10.4-9.45 10.4-7.65L10.4-7.65Q10.4-6.65 10.53-5.68 10.65-4.7 10.95-3.8L10.95-3.8Q10.15-1.85 8.72-0.83 7.3 0.2 5.85 0.2ZM47.25 0.35L47.25 0.35Q45.3 0.35 43.3-0.1 41.3-0.55 39.62-1.53 37.95-2.5 36.92-4.08 35.9-5.65 35.9-7.85L35.9-7.85Q35.9-8.1 35.9-8.33 35.9-8.55 35.95-8.9L35.95-8.9Q36.1-10.25 36.62-12.25 37.15-14.25 37.85-16.5 38.55-18.75 39.22-20.95 39.9-23.15 40.35-24.98 40.8-26.8 40.8-27.9L40.8-27.9Q40.8-29.1 40.15-29.1L40.15-29.1Q39.5-29.1 38.2-27.85 36.9-26.6 35.2-23.7L35.2-23.7 34.9-23.8Q34.9-27.85 36.72-30.73 38.55-33.6 41.92-35.13 45.3-36.65 49.9-36.65L49.9-36.65Q54.2-36.65 57.3-35.38 60.4-34.1 62.37-31.9 64.35-29.7 65.3-26.88 66.25-24.05 66.25-20.95L66.25-20.95Q66.25-17.2 64.92-13.43 63.6-9.65 61.12-6.53 58.65-3.4 55.12-1.53 51.6 0.35 47.25 0.35ZM48.1-6.25L48.1-6.25Q50.1-6.25 51.72-7.43 53.35-8.6 54.55-10.55 55.75-12.5 56.4-14.88 57.05-17.25 57.05-19.65L57.05-19.65Q57.05-22.5 56.07-25 55.1-27.5 52.95-29.05 50.8-30.6 47.35-30.6L47.35-30.6Q47.6-29.65 47.72-28.65 47.85-27.65 47.85-26.6L47.85-26.6Q47.85-24.3 47.42-21.9 47-19.5 46.47-17.25 45.95-15 45.52-13.05 45.1-11.1 45.1-9.6L45.1-9.6Q45.1-8.05 45.75-7.15 46.4-6.25 48.1-6.25Z" opacity="1" transform="matrix(1,0,0,1,0,0)" fill="white" class="wordmark-text-0" id="SvgjsPath1237"></path></svg></g></svg></g></svg></g></svg></g><g></g></svg></g></svg></g></svg></g></svg></g><defs><mask></mask></defs></svg><rect width="342.85155851775386" height="342.85155851775386" fill="black" stroke="none" visibility="hidden"></rect></g></mask><linearGradient x1="0" x2="1" y1="0.578" y2="0.595" id="17dfa635-45e7-4b56-80ec-86539b672a92"><stop stop-color="#6ee2f5" offset="0"></stop><stop stop-color="#6454f0" offset="1"></stop></linearGradient><rect width="342.852" height="342.852" fill="url(#17dfa635-45e7-4b56-80ec-86539b672a92)" mask="url(#b9ced3a2-8e7a-4afe-9655-8a43a6e485e0)" data-fill-palette-color="quaternary"></rect></svg><rect width="342.85155851775386" height="342.85155851775386" fill="none" stroke="none" visibility="hidden"></rect></g></svg></g></svg>